<?xml version="1.0" standalone="no"?>
<!DOCTYPE svg PUBLIC "-//W3C//DTD SVG 20010904//EN"
 "http://www.w3.org/TR/2001/REC-SVG-20010904/DTD/svg10.dtd">
<svg version="1.0" xmlns="http://www.w3.org/2000/svg"
 width="754.000000pt" height="754.000000pt" viewBox="0 0 754.000000 754.000000"
 preserveAspectRatio="xMidYMid meet">
<metadata>
Created by potrace 1.14, written by Peter Selinger 2001-2017
</metadata>
<g transform="translate(0.000000,754.000000) scale(0.100000,-0.100000)"
fill="#000000" stroke="none">
<path d="M2654 7525 c4 -11 -3 -15 -27 -16 -18 -1 -36 -1 -41 0 -5 1 -4 -5 4
-13 12 -16 5 -21 -22 -17 -5 0 -8 -3 -8 -9 0 -5 10 -10 23 -11 16 0 12 -4 -17
-15 -46 -17 -68 -33 -60 -45 3 -5 -2 -12 -10 -15 -23 -9 -20 -24 5 -24 14 0
19 -5 16 -14 -10 -25 5 -25 31 -1 14 13 29 22 32 19 3 -3 -5 -14 -17 -24 -26
-21 -30 -52 -9 -69 8 -7 17 -23 20 -37 4 -14 10 -23 15 -20 4 3 6 -6 3 -20 -4
-24 -5 -24 -24 -7 -17 15 -16 9 6 -32 30 -55 46 -76 46 -58 0 7 -4 15 -10 18
-5 3 -10 18 -10 32 0 19 3 23 13 16 6 -6 22 -9 34 -8 12 1 20 -2 17 -6 -2 -4
1 -11 7 -15 8 -5 9 -3 4 6 -6 9 -1 10 16 5 l24 -7 -21 16 c-26 19 -35 58 -17
74 10 10 13 9 14 -5 0 -11 3 -13 6 -5 2 6 11 12 20 12 8 0 23 10 34 23 10 12
18 17 19 10 0 -6 -4 -15 -10 -18 -16 -10 -12 -54 7 -86 10 -16 20 -29 24 -29
4 0 28 -21 54 -46 36 -35 50 -43 56 -32 13 20 11 36 -7 46 -12 7 -13 11 -4 17
6 4 17 2 23 -4 6 -6 19 -11 28 -11 10 0 27 -12 38 -27 28 -35 34 -25 17 25 -8
22 -12 43 -8 47 4 3 0 10 -8 15 -8 5 -12 12 -8 15 9 10 127 -105 151 -147 11
-21 24 -38 29 -38 11 0 10 17 -1 25 -5 3 -20 25 -34 49 l-24 43 81 -38 c208
-97 348 -129 417 -94 18 10 42 24 51 33 14 11 21 12 32 3 11 -9 16 -9 21 0 6
8 10 8 15 -2 14 -22 83 7 99 43 7 16 15 27 18 24 11 -11 54 93 65 157 6 37 14
67 18 67 4 0 13 15 20 33 7 17 16 41 20 52 18 42 23 85 18 135 -2 20 -10 20
-661 20 -582 0 -658 -2 -653 -15z m21 -85 c-3 -5 -12 -7 -20 -3 -21 7 -19 13
6 13 11 0 18 -4 14 -10z m1225 -90 c0 -15 -7 -20 -25 -20 -29 0 -33 15 -7 29
25 15 32 13 32 -9z"/>
<path d="M4134 7443 c9 -124 12 -133 39 -130 18 2 24 -7 37 -48 10 -30 19 -44
24 -37 11 19 29 14 21 -5 -4 -10 -9 -52 -12 -93 -2 -41 -5 -80 -5 -86 -1 -6
-8 -11 -17 -10 -9 1 -15 -4 -14 -11 2 -7 -4 -10 -12 -7 -8 4 -15 1 -15 -6 0
-7 -14 -28 -31 -47 -17 -20 -28 -42 -25 -50 11 -29 -58 -99 -183 -186 -33 -23
-38 -31 -28 -42 13 -14 31 -10 22 6 -4 5 -1 9 4 9 6 0 11 -7 11 -16 0 -13 3
-14 14 -5 11 10 24 9 56 0 35 -11 46 -10 75 4 19 9 35 23 35 31 0 16 21 26 55
26 16 0 30 10 41 30 10 16 25 31 33 33 13 4 13 5 -1 6 -72 5 91 62 220 78 55
7 55 25 0 20 -23 -2 -58 0 -77 6 -34 10 -31 11 69 28 58 10 159 21 225 25 159
9 182 23 38 24 -61 0 -119 3 -129 7 -10 3 -15 2 -12 -3 4 -5 -27 -9 -72 -9
-59 0 -76 3 -68 12 5 6 15 10 23 7 7 -3 16 0 20 5 3 6 11 9 16 6 5 -4 9 -2 9
4 0 5 -8 15 -17 20 -12 7 -14 10 -4 11 8 0 11 7 8 20 -3 11 0 20 6 20 8 0 8 3
0 11 -6 6 -9 18 -6 25 4 10 -4 14 -28 15 -28 0 -30 2 -14 8 31 13 202 43 270
48 33 2 71 12 85 21 14 9 31 15 39 13 8 -1 12 3 8 11 -2 8 2 25 10 39 8 13 12
17 10 8 -3 -9 1 -16 9 -16 17 0 17 -1 4 34 l-10 28 20 -25 21 -25 -6 24 c-5
16 -4 21 4 16 16 -9 4 39 -21 85 -10 19 -18 42 -17 50 0 8 7 -2 16 -22 8 -21
19 -38 24 -38 5 0 9 -11 9 -24 0 -14 5 -28 12 -32 8 -5 9 -2 5 9 -3 10 -2 17
3 17 5 0 0 21 -11 46 -12 25 -19 56 -16 67 3 12 1 31 -4 42 -7 16 -8 14 -4
-10 l5 -30 -15 28 -16 27 -386 0 -385 0 6 -97z m769 57 c3 -11 2 -18 -3 -15
-4 3 -10 14 -13 25 -3 11 -2 18 3 15 4 -3 10 -14 13 -25z m2 -121 c9 -17 14
-36 12 -42 -3 -9 -37 54 -37 69 0 12 12 0 25 -27z m-35 -54 c14 -19 14 -19 -2
-6 -10 7 -18 18 -18 24 0 6 1 8 3 6 1 -2 9 -13 17 -24z m-523 -411 c-3 -3 -12
-4 -19 -1 -8 3 -5 6 6 6 11 1 17 -2 13 -5z"/>
<path d="M4956 7508 c4 -46 4 -46 14 -20 10 23 4 52 -10 52 -4 0 -6 -15 -4
-32z"/>
<path d="M2650 7035 c0 -5 5 -17 10 -25 5 -8 10 -10 10 -5 0 6 -5 17 -10 25
-5 8 -10 11 -10 5z"/>
<path d="M3811 6977 c-6 -8 -12 -57 -13 -111 -3 -92 -4 -97 -27 -103 -13 -3
-26 -1 -31 6 -5 8 -19 10 -42 6 -20 -4 -44 -3 -54 3 -30 15 -44 3 -44 -36 0
-46 -8 -58 -45 -72 -39 -16 -63 -18 -97 -9 -16 4 -28 4 -28 -1 0 -4 -11 -3
-25 3 -14 7 -25 15 -25 20 0 12 -28 8 -33 -5 -2 -7 7 -33 20 -58 26 -49 27
-93 2 -98 -16 -3 -81 75 -106 128 -20 43 -14 5 7 -41 11 -24 20 -61 20 -81 0
-32 -3 -37 -20 -35 -11 2 -27 12 -36 23 -15 18 -15 18 -9 -11 16 -84 17 -114
3 -134 -14 -20 -16 -18 -50 51 -20 40 -44 90 -53 111 -10 21 -19 36 -21 35 -1
-2 6 -35 17 -73 19 -70 28 -159 18 -170 -10 -9 -39 6 -39 20 0 7 -6 18 -14 25
-8 6 -17 21 -20 33 -2 12 -2 -21 1 -74 3 -53 1 -99 -4 -102 -11 -7 -34 12 -58
48 -33 51 -41 67 -85 196 -45 129 -89 234 -96 227 -2 -2 1 -18 6 -34 17 -54
78 -269 84 -299 4 -16 8 -85 10 -152 3 -101 1 -123 -11 -127 -8 -4 -20 -3 -26
1 -20 13 -47 13 -47 2 0 -7 -6 -7 -17 2 -15 13 -16 10 -10 -38 4 -40 3 -53 -9
-57 -9 -3 -14 1 -14 12 0 10 -9 27 -19 39 -11 11 -29 45 -41 74 -12 30 -33 78
-46 107 -13 29 -24 56 -24 61 0 8 -13 40 -99 241 -19 47 -51 112 -69 145 -19
33 -38 71 -43 84 -5 13 -12 21 -15 19 -3 -3 4 -25 15 -49 70 -156 93 -218 151
-399 24 -74 46 -139 50 -145 3 -5 14 -31 24 -57 9 -25 24 -52 32 -58 16 -14
19 -30 5 -30 -5 0 -52 48 -104 108 -90 103 -320 334 -382 385 -17 14 -66 67
-110 118 -86 100 -151 169 -160 169 -11 0 -5 -39 8 -47 6 -4 19 -21 27 -38 8
-16 154 -169 326 -340 317 -316 373 -383 412 -488 40 -107 21 -227 -37 -227
-14 0 -17 -6 -12 -32 4 -31 5 -32 11 -8 6 25 6 25 17 -7 9 -24 9 -33 0 -37 -9
-3 -9 -5 1 -5 14 -1 17 -41 3 -41 -5 0 -36 19 -69 41 -68 47 -128 57 -159 27
-23 -23 -16 -27 50 -33 59 -4 85 -14 106 -39 10 -12 6 -16 -26 -25 -21 -6 -56
-11 -77 -11 -22 0 -53 -4 -70 -10 -17 -5 -69 -21 -116 -36 -77 -25 -118 -41
-290 -122 -30 -14 -67 -33 -81 -43 -14 -10 -29 -16 -31 -13 -23 22 -190 -292
-213 -400 -14 -65 -25 0 -35 214 -11 218 -15 258 -25 248 -3 -2 -8 -67 -11
-144 -4 -76 -11 -144 -16 -151 -5 -7 -7 -17 -3 -23 3 -5 3 -15 -1 -21 -4 -6
-8 -35 -10 -63 -5 -85 -10 -110 -22 -114 -7 -2 -12 -9 -12 -16 0 -19 -60 -78
-122 -119 -78 -52 -85 -62 -49 -77 22 -9 35 -9 50 -1 23 13 61 -4 61 -27 0 -7
4 -11 9 -8 4 3 6 -6 3 -21 -3 -16 -1 -24 6 -20 5 4 13 0 16 -9 9 -23 7 -31 -3
-16 -7 11 -9 10 -14 -3 -4 -9 -3 -13 3 -10 6 3 10 1 10 -5 0 -6 6 -8 13 -4 6
4 9 4 5 -1 -12 -13 52 -121 83 -139 16 -9 29 -21 29 -26 0 -11 -50 14 -78 40
-19 18 -33 15 -15 -4 4 -3 8 -16 10 -28 2 -12 8 -27 13 -34 8 -8 6 -13 -5 -18
-15 -5 -15 -8 -1 -21 8 -9 13 -22 10 -30 -8 -19 22 -31 40 -16 17 14 21 4 31
-76 4 -29 11 -56 16 -59 6 -3 6 -11 -1 -19 -7 -8 -13 -26 -15 -42 -1 -15 -7
-29 -13 -31 -6 -2 -9 -9 -6 -16 3 -8 -2 -20 -10 -29 -9 -9 -16 -22 -16 -29 0
-17 -55 -78 -69 -78 -6 0 -11 -11 -11 -25 0 -14 -5 -25 -12 -25 -6 0 -8 -3 -5
-6 3 -4 -7 -23 -23 -42 -16 -19 -27 -39 -24 -43 11 -19 79 34 195 152 69 71
131 129 137 129 7 0 12 5 12 10 0 6 7 10 16 10 10 0 14 6 11 14 -4 10 -1 13 9
9 14 -5 16 -49 18 -343 1 -108 -13 -440 -19 -450 -3 -4 -6 -46 -7 -93 -1 -64
3 -92 15 -110 19 -30 32 -75 28 -101 -1 -10 3 -23 11 -27 10 -7 9 -9 -4 -9
-10 0 -18 -7 -18 -15 0 -8 5 -15 11 -15 5 0 7 -4 4 -10 -3 -5 2 -26 11 -46 10
-21 18 -62 18 -98 l1 -61 40 0 c36 0 40 -3 43 -27 2 -16 9 -28 18 -28 8 0 13
-3 13 -7 -3 -21 2 -34 11 -28 6 4 8 10 5 15 -7 12 28 30 59 30 13 0 26 5 28
12 3 7 11 9 24 3 10 -4 23 -7 28 -6 4 1 14 -3 21 -9 9 -8 14 -5 18 10 3 13 11
18 20 14 8 -3 18 -1 22 5 4 7 -4 11 -19 11 -17 0 -26 5 -26 16 0 13 7 15 30
11 17 -4 30 -2 30 3 0 11 40 -9 52 -25 5 -7 14 -6 28 3 24 15 57 16 62 1 4
-13 51 28 67 59 6 12 16 22 22 22 6 0 6 -8 -1 -21 -7 -11 -9 -23 -6 -27 3 -3
6 0 6 6 0 7 7 12 15 12 8 0 15 5 15 11 0 7 9 9 22 6 12 -4 28 -1 35 5 9 7 13
7 13 0 0 -6 -5 -14 -12 -18 -7 -5 -3 -10 12 -16 16 -6 30 -3 49 9 26 18 91 25
91 11 0 -5 -5 -8 -11 -8 -5 0 -8 -4 -5 -9 7 -11 46 -2 46 10 0 5 4 9 10 9 5 0
7 -7 3 -16 -5 -14 -1 -16 21 -12 18 4 30 0 37 -11 9 -14 10 -14 5 2 -3 10 -6
22 -6 27 0 4 -10 6 -22 4 -17 -3 -15 0 7 10 17 8 34 11 40 8 5 -3 4 -7 -3 -10
-14 -4 -17 -23 -3 -19 5 1 9 -2 9 -7 0 -18 34 -29 43 -15 8 13 13 6 10 -13 -2
-12 47 -10 54 2 10 17 32 11 66 -17 18 -16 30 -22 25 -15 -11 18 2 15 31 -8
19 -15 30 -17 44 -9 15 7 19 6 19 -6 0 -8 5 -15 10 -15 6 0 10 4 10 9 0 5 9
11 21 14 14 4 19 1 16 -7 -3 -7 3 -18 14 -24 16 -10 17 -9 12 6 -6 15 -4 15 9
4 14 -11 18 -10 28 5 10 16 11 16 6 1 -6 -20 10 -25 17 -5 2 6 4 0 4 -14 0
-24 37 -72 58 -76 14 -2 19 -23 6 -23 -6 0 -11 -4 -11 -9 0 -4 11 -6 25 -3 18
3 25 0 23 -9 -2 -8 5 -14 17 -14 11 -1 19 -7 17 -14 -4 -19 27 -51 50 -51 15
0 17 -5 12 -25 -5 -21 -3 -24 11 -19 12 5 16 15 13 35 -4 23 -2 26 9 18 7 -6
10 -15 7 -20 -3 -5 -1 -16 4 -25 6 -11 11 -13 16 -5 4 6 13 11 19 11 8 0 8 -3
2 -8 -5 -4 -16 -18 -23 -31 -12 -21 -12 -23 2 -18 27 11 48 -3 42 -28 -4 -15
-1 -25 9 -29 8 -3 15 -12 15 -21 0 -8 5 -15 11 -15 5 0 7 5 4 10 -13 21 27 9
51 -15 20 -21 29 -23 40 -14 11 9 15 8 20 -5 3 -9 11 -13 17 -9 6 4 8 0 4 -11
-4 -9 -3 -15 2 -11 5 3 11 -1 14 -7 3 -10 7 -10 17 -1 10 9 16 8 28 -3 8 -8
11 -18 8 -22 -4 -3 -11 0 -15 7 -6 8 -11 9 -15 3 -3 -6 3 -13 14 -17 11 -4 17
-11 14 -17 -4 -6 1 -8 15 -3 12 4 21 2 21 -4 0 -6 -5 -11 -11 -11 -6 0 -9 -10
-7 -23 2 -16 10 -22 30 -22 34 -1 50 -15 17 -16 -13 0 -18 -3 -11 -6 6 -2 12
-12 13 -21 0 -11 2 -12 6 -4 8 21 30 13 35 -12 4 -19 1 -23 -11 -19 -12 3 -12
1 3 -11 10 -8 15 -19 12 -25 -5 -7 3 -9 24 -5 25 6 29 4 24 -10 -4 -10 -1 -16
7 -16 11 0 11 -3 -1 -10 -8 -5 -10 -10 -3 -10 6 0 9 -9 6 -22 -3 -17 -2 -19 5
-9 6 9 17 11 28 7 18 -7 18 -8 -2 -19 -12 -7 -19 -18 -17 -24 3 -7 0 -13 -6
-13 -19 0 -12 -18 9 -25 12 -4 28 -1 36 6 20 17 31 2 15 -22 -19 -32 -6 -33
23 -2 l26 28 0 -27 c0 -15 5 -30 10 -33 10 -6 13 5 11 35 0 8 3 21 8 29 8 12
12 12 25 2 9 -8 16 -20 16 -27 0 -8 5 -14 11 -14 6 0 9 -9 6 -20 -3 -11 -1
-23 4 -26 6 -3 5 -12 -3 -22 -11 -13 -10 -15 12 -9 35 8 65 -15 51 -40 -10
-17 -10 -16 -11 4 0 15 -5 21 -14 17 -12 -5 -12 -10 2 -35 17 -29 32 -38 32
-19 0 6 5 10 10 10 6 0 10 -6 10 -14 0 -16 69 -28 86 -15 6 5 16 0 25 -13 8
-11 20 -27 28 -35 8 -8 11 -25 8 -42 -5 -24 -2 -29 29 -40 19 -7 34 -18 33
-24 -3 -27 2 -37 19 -37 15 -1 14 -2 -3 -12 -19 -12 -19 -12 5 -19 l25 -6 -25
-11 -25 -11 25 0 c24 -1 58 -37 46 -49 -3 -3 -6 0 -6 7 0 7 -4 10 -9 7 -12 -8
-3 -109 12 -119 7 -5 3 -6 -10 -2 -28 8 -29 2 -5 -21 16 -17 16 -17 -4 -12
-12 3 -27 2 -34 -2 -7 -4 2 -10 24 -14 29 -6 34 -9 24 -20 -7 -8 -20 -11 -28
-9 -8 3 -4 -5 10 -17 l25 -22 -27 6 c-15 3 -29 2 -32 -3 -3 -5 17 -8 47 -7 35
1 51 -3 50 -11 -4 -17 91 -46 127 -38 18 4 47 1 73 -9 39 -14 137 -28 137 -19
0 2 -10 8 -22 13 -18 7 -19 9 -5 9 9 1 17 6 17 11 0 6 5 10 11 10 5 0 7 -5 4
-10 -7 -11 21 -23 73 -33 26 -5 32 -3 32 11 1 15 2 15 12 -2 8 -15 8 -21 0
-24 -7 -2 -9 -8 -6 -13 3 -6 14 -1 24 11 11 13 21 17 25 10 3 -5 2 -10 -3 -10
-6 0 -12 -7 -15 -14 -4 -10 -1 -13 7 -10 8 3 26 -6 41 -20 15 -14 31 -23 36
-20 5 3 9 1 9 -5 0 -5 7 -17 16 -25 12 -12 12 -16 2 -16 -7 -1 2 -7 20 -15 17
-8 32 -19 32 -25 0 -5 7 -10 15 -10 9 0 12 6 9 18 -5 13 -4 14 4 3 6 -9 7 -23
2 -37 -10 -24 8 -38 35 -28 8 4 15 1 15 -5 0 -6 -6 -11 -12 -11 -7 0 -4 -6 7
-12 22 -13 46 -41 39 -47 -2 -2 -14 4 -26 15 l-23 19 19 -22 c11 -13 27 -23
38 -23 16 0 16 3 6 20 -14 23 -8 33 16 24 9 -4 15 -13 12 -21 -4 -9 4 -15 23
-19 17 -4 31 -14 34 -24 3 -13 11 -17 26 -13 24 6 42 -24 21 -37 -8 -5 6 -10
36 -15 41 -5 52 -11 67 -37 14 -24 15 -29 3 -25 -10 4 -13 1 -9 -9 3 -8 12
-13 19 -10 8 3 21 9 29 12 11 4 15 0 15 -16 0 -19 2 -20 15 -10 9 7 18 10 22
6 4 -3 -2 -13 -13 -20 -10 -8 -16 -18 -12 -22 4 -4 14 -1 23 6 9 7 19 10 22 6
4 -4 1 -12 -7 -17 -11 -8 -7 -9 15 -6 17 2 25 2 18 0 -10 -3 -10 -9 0 -24 14
-22 37 -25 37 -5 0 21 18 30 34 17 16 -14 27 -4 18 17 -5 14 -3 15 10 4 13
-10 17 -10 20 0 3 7 13 13 24 13 13 0 18 6 17 20 -2 11 0 31 3 45 l6 25 12
-24 13 -24 7 27 c8 31 41 67 58 63 16 -3 40 45 28 57 -18 18 -11 33 13 29 18
-4 26 4 45 39 12 24 26 50 31 58 5 8 15 28 22 43 14 31 96 117 111 117 5 0 17
18 26 39 16 35 49 73 191 217 24 24 52 44 62 44 11 0 19 6 20 13 0 16 84 77
131 95 21 8 40 23 43 33 4 12 16 19 32 19 25 0 25 2 21 50 -3 28 -1 50 3 50 5
0 9 7 9 15 0 9 -8 14 -22 12 -19 -2 -23 2 -20 24 3 22 -2 27 -29 33 -17 3 -43
6 -58 7 -14 0 -20 3 -13 6 18 7 4 23 -20 23 -12 0 -29 7 -39 16 -19 17 -39 11
-39 -12 0 -10 12 -14 40 -14 50 0 51 -12 4 -27 -26 -7 -46 -8 -65 -1 -24 8
-27 13 -18 29 13 25 -3 31 -89 29 -29 0 -33 3 -27 20 5 15 3 18 -9 14 -10 -4
-16 -1 -16 9 0 17 -58 29 -63 13 -2 -5 -9 -6 -15 -2 -21 13 -13 23 19 24 41 1
58 18 29 27 -13 4 -25 3 -29 -3 -3 -6 -19 -14 -34 -17 -22 -6 -25 -10 -16 -21
8 -9 8 -14 1 -14 -21 0 -25 23 -7 37 18 12 17 13 -8 13 -17 0 -25 -4 -22 -12
3 -7 1 -20 -5 -28 -7 -12 -12 -12 -22 -2 -9 9 -8 12 7 12 10 0 16 3 12 6 -3 4
-19 2 -35 -4 -20 -7 -33 -6 -45 3 -9 6 -15 14 -13 16 2 2 6 17 10 32 6 26 5
27 -13 18 -15 -8 -27 -7 -51 7 -29 16 -32 16 -44 0 -7 -10 -16 -15 -20 -11 -3
4 6 15 21 25 l28 18 -28 0 c-16 0 -26 4 -22 10 4 6 -6 7 -25 4 -19 -4 -30 -2
-30 5 0 6 5 11 12 11 6 0 8 3 5 6 -4 4 -13 1 -21 -6 -9 -7 -53 -13 -102 -15
-75 -3 -84 -2 -67 10 14 10 30 11 59 5 50 -12 56 -12 49 -1 -3 6 -26 13 -50
17 -25 3 -42 10 -39 15 12 20 -15 7 -31 -15 -18 -23 -20 -23 -62 -11 -42 13
-44 13 -37 -7 5 -16 3 -20 -9 -15 -9 3 -18 -1 -21 -9 -7 -17 -33 -19 -39 -1
-4 10 -7 9 -18 -1 -15 -14 -49 -16 -49 -2 0 5 8 14 18 19 15 9 15 12 2 22 -11
8 -12 12 -2 16 6 2 12 13 12 22 0 10 17 30 38 46 20 15 29 25 18 21 -26 -9
-45 20 -46 72 0 23 -4 42 -10 42 -5 0 -10 9 -10 20 0 22 -25 28 -33 8 -3 -7
-5 3 -5 22 0 19 2 27 5 18 2 -10 11 -18 19 -18 24 0 12 35 -14 38 -12 2 -22
10 -22 18 0 8 -4 14 -9 14 -5 0 -11 9 -14 21 -3 11 -15 23 -26 26 -17 4 -19 8
-10 20 9 10 9 17 1 25 -9 9 -12 8 -12 -5 0 -24 -15 -21 -17 3 -1 11 7 26 19
34 27 19 13 39 -23 34 -15 -3 -26 -1 -24 3 3 4 -1 12 -8 17 -7 6 -12 28 -12
48 1 28 -3 38 -17 42 -18 4 -20 29 -2 25 5 -1 9 10 9 23 0 13 -6 24 -13 24
-19 0 -10 21 14 34 10 6 22 15 25 20 4 4 10 3 13 -3 4 -6 12 -11 17 -11 6 0 8
4 5 9 -4 5 -1 11 4 13 13 4 16 35 6 68 -6 19 -5 21 3 10 9 -12 11 -11 11 8 0
12 -7 25 -15 28 -8 4 -15 11 -15 16 0 6 7 7 16 4 8 -3 25 -1 36 5 20 11 20 11
-1 25 -12 9 -25 13 -30 9 -5 -3 -25 2 -44 11 -33 16 -40 35 -22 64 5 9 4 15
-3 18 -7 2 -12 10 -12 17 0 8 21 16 58 21 l57 8 -50 7 c-46 5 -47 6 -12 7 24
1 40 8 44 18 9 24 -21 67 -56 79 -16 5 -36 16 -43 23 -11 11 -10 15 5 23 17
10 16 12 -7 30 -13 10 -29 19 -35 19 -6 0 -15 9 -21 20 -6 11 -15 18 -20 15
-5 -3 -11 -1 -14 4 -3 5 8 14 24 20 45 15 36 25 -17 17 -37 -5 -45 -4 -35 6
20 20 14 59 -13 80 -14 11 -25 28 -25 38 0 11 -9 24 -20 30 -26 14 -26 30 1
30 11 0 27 7 35 15 14 13 14 15 1 15 -9 0 -17 -6 -20 -12 -3 -9 -7 -7 -12 6
-15 36 36 76 56 44 5 -7 6 3 2 24 -6 42 11 73 34 63 9 -3 13 0 11 7 -5 15 35
58 56 58 9 0 16 7 16 15 0 8 9 15 19 15 20 0 39 32 22 38 -19 6 -12 21 17 36
16 9 21 15 11 16 -11 0 -16 10 -16 31 0 17 -6 35 -14 40 -8 5 -10 9 -5 9 5 0
4 6 -1 13 -6 6 -13 28 -16 47 -8 51 -35 110 -51 110 -7 0 -16 12 -19 28 -3 15
-14 36 -24 47 -10 11 -19 33 -19 48 -1 16 -9 36 -18 46 -9 10 -16 27 -16 39 0
14 -6 22 -17 23 -17 0 -17 1 -1 12 15 10 15 12 -5 22 -12 7 -21 17 -19 24 1 7
-4 19 -13 27 -8 9 -15 27 -15 41 0 15 -6 34 -13 42 -31 36 -56 146 -61 260 -1
25 -7 46 -13 48 -6 2 -9 21 -6 47 3 24 0 59 -6 77 -13 44 -29 174 -37 319 -3
63 -10 120 -14 125 -9 12 -23 116 -21 160 0 17 -6 68 -15 115 -8 46 -16 98
-16 115 -1 57 -38 72 -38 14 0 -18 -5 -29 -14 -29 -7 0 -16 -13 -19 -30 -4
-17 -13 -30 -21 -30 -10 0 -15 -9 -14 -27 1 -42 -21 -153 -39 -195 -13 -31
-18 -35 -33 -26 -16 11 -17 29 -3 68 4 8 5 21 4 28 -1 8 3 20 10 28 9 11 7 14
-12 14 -12 0 -38 5 -56 12 -27 10 -41 9 -82 -6 -46 -16 -143 -21 -166 -7 -5 3
-17 6 -25 6 -8 0 -14 6 -13 13 2 6 -4 12 -12 12 -8 0 -15 5 -15 10 0 6 -12 10
-27 9 -16 0 -23 -3 -16 -6 10 -3 10 -7 0 -17 -10 -11 -15 -10 -29 7 -10 11
-17 21 -15 23 1 2 70 5 152 9 159 6 251 12 299 22 23 4 26 7 14 14 -18 10 -13
48 6 50 6 1 0 4 -14 8 -18 5 -25 13 -24 30 1 15 -3 20 -12 17 -7 -3 -16 -2
-18 3 -3 4 -45 -1 -93 -11 -48 -10 -96 -16 -105 -14 -10 2 -18 0 -18 -5 0 -13
-37 -11 -46 2 -4 6 -21 9 -43 6 -95 -14 -152 -26 -184 -38 -34 -12 -37 -11
-66 20 -35 38 -25 47 43 38 24 -4 47 -2 52 2 5 5 36 11 69 14 296 27 350 35
375 57 16 14 19 23 11 43 -9 23 -14 24 -78 24 -37 0 -72 -3 -78 -7 -18 -13
-79 -9 -96 6 -16 14 -59 15 -69 2 -4 -4 -67 -11 -140 -14 -74 -3 -137 -7 -140
-7 -12 -2 -55 17 -67 29 -8 7 -29 13 -47 12 -18 -1 -54 10 -80 23 -43 21 -46
24 -30 36 27 20 70 16 126 -13 50 -26 55 -26 172 -19 67 4 127 12 134 17 22
19 12 206 -10 192 -6 -4 -8 2 -3 15 4 13 2 21 -5 21 -7 0 -9 7 -6 16 3 8 2 13
-3 10 -5 -3 -11 1 -15 9 -3 8 -12 15 -21 15 -19 0 -20 -16 0 -24 19 -7 20 -43
2 -61 -19 -19 -124 -85 -135 -85 -5 0 -21 11 -36 25 l-26 24 6 -23 c5 -20 2
-23 -31 -24 -20 -1 -46 -8 -58 -17 -12 -8 -35 -15 -53 -15 -17 0 -34 -3 -38
-7 -3 -4 -17 -8 -29 -9 -12 -2 -17 0 -10 2 7 3 9 12 6 19 -3 9 4 18 19 24 22
9 141 49 163 54 15 4 139 68 148 77 5 4 1 10 -8 14 -9 3 -13 2 -10 -4 3 -6 1
-10 -4 -10 -6 0 -11 5 -11 10 0 6 -7 10 -16 10 -14 0 -15 7 -10 44 5 33 3 54
-9 77 -16 30 -18 31 -33 14 -11 -12 -13 -19 -6 -22 8 -3 6 -16 -7 -43 -23 -47
-39 -52 -39 -12 l-1 27 -24 -28 c-14 -15 -25 -34 -25 -41 0 -14 -29 -30 -38
-22 -12 13 -2 222 13 245 5 9 4 12 -3 7 -5 -3 -12 0 -15 6 -6 18 -41 -3 -46
-28 -2 -10 -8 -30 -13 -44 -14 -36 -29 -5 -19 40 6 29 13 37 45 48 22 7 53 19
70 26 49 22 91 33 250 65 82 17 152 33 155 37 10 10 -250 -38 -336 -62 -29 -9
-62 -12 -74 -9 -15 5 -19 4 -15 -4 4 -6 2 -11 -3 -11 -6 0 -11 5 -11 11 0 5
-5 7 -10 4 -6 -4 -7 -11 -4 -17 5 -7 1 -9 -9 -5 -12 4 -17 1 -17 -11 0 -13 -2
-14 -8 -4 -7 9 -15 10 -35 3 -15 -6 -27 -9 -27 -7 0 14 34 66 43 67 7 0 2 4
-11 9 l-23 10 22 30 c13 16 27 30 32 30 12 0 30 21 44 52 8 17 23 29 43 33 22
5 30 11 26 22 -3 8 -6 16 -6 17 0 5 -147 -17 -162 -25 -13 -6 -18 -3 -23 12
-4 11 -9 18 -12 15 -4 -3 -12 -1 -20 5 -10 9 -10 15 -2 25 16 19 6 17 -35 -7
-36 -21 -66 -19 -91 5 -9 8 7 23 65 61 l78 51 -20 38 c-11 21 -17 48 -14 60 6
23 -13 96 -24 96 -4 0 -13 -6 -19 -13z m-86 -307 c13 -6 15 -9 5 -9 -8 0 -22
4 -30 9 -18 12 -2 12 25 0z m158 -380 c-4 -15 -9 -18 -17 -10 -9 6 -16 6 -24
-2 -7 -7 -12 -8 -12 -4 0 11 32 35 47 36 6 0 9 -8 6 -20z m-90 -42 c-4 -7 -8
-15 -9 -18 -4 -20 -18 -39 -25 -34 -13 7 -5 44 12 55 20 13 31 11 22 -3z
m-155 -173 c-3 -3 -9 2 -12 12 -6 14 -5 15 5 6 7 -7 10 -15 7 -18z m-72 -787
c-13 -660 -16 -701 -61 -928 -31 -158 -46 -271 -47 -374 -1 -58 -5 -106 -8
-106 -11 0 -40 99 -40 138 0 22 -7 56 -15 75 -15 36 -35 57 -35 37 0 -7 -8 -9
-19 -5 -14 4 -23 0 -30 -14 -6 -11 -21 -21 -33 -23 -16 -2 -26 -13 -33 -35
-10 -37 -20 -42 -28 -14 -3 12 -12 19 -23 17 -10 -2 -29 3 -43 11 -15 7 -32
13 -38 13 -7 0 -13 6 -13 14 0 23 -19 29 -36 12 -18 -18 -17 -18 -38 -10 -20
7 -21 28 -3 46 21 20 27 69 11 75 -16 6 -19 43 -4 43 6 0 10 -6 10 -12 1 -23
17 15 24 55 4 20 4 43 -1 50 -4 6 -6 24 -4 39 1 18 -2 28 -10 28 -8 0 -5 6 6
13 25 19 8 25 -50 18 -27 -4 -57 -3 -65 0 -8 4 -23 10 -34 13 -13 5 -17 12
-12 30 4 16 -1 29 -14 41 -11 10 -20 26 -20 35 0 9 -5 21 -12 28 -13 13 -15
19 -24 70 -6 32 -9 34 -37 28 -17 -3 -38 -12 -46 -20 -46 -41 -181 -56 -181
-20 0 8 -4 14 -10 14 -5 0 -10 7 -10 15 0 8 3 15 8 15 8 0 32 48 32 64 0 5 8
18 17 28 13 15 14 21 5 27 -7 4 -10 15 -6 24 4 12 1 17 -10 17 -9 0 -16 -7
-16 -16 0 -14 -3 -14 -15 -4 -9 8 -15 8 -15 2 0 -6 -17 -21 -37 -33 -21 -13
-42 -28 -48 -35 -5 -6 -27 -17 -47 -24 -21 -6 -38 -18 -38 -26 0 -8 -6 -14
-13 -14 -8 0 -24 -11 -37 -25 -13 -14 -29 -25 -36 -25 -7 0 -34 -21 -61 -47
-26 -27 -55 -48 -63 -48 -15 0 -29 -40 -22 -67 2 -9 12 -18 23 -21 10 -3 19
-11 20 -19 0 -7 14 -24 31 -38 24 -18 44 -25 82 -25 77 -2 156 -56 156 -107 0
-22 5 -28 23 -29 16 -1 18 -2 5 -6 -20 -5 -23 -18 -8 -28 6 -4 8 -11 5 -16 -4
-5 6 -9 22 -9 19 0 24 -3 15 -9 -11 -7 -11 -9 2 -14 9 -4 22 -4 30 -1 7 3 16
-2 19 -10 9 -22 84 -39 142 -33 28 4 66 2 85 -3 32 -9 31 -9 -16 -6 -42 2 -53
-1 -63 -17 -11 -17 -21 -19 -73 -15 -41 3 -65 10 -73 21 -7 9 -18 17 -26 17
-8 0 -36 16 -63 35 -27 19 -56 35 -64 35 -9 0 -12 6 -8 16 3 8 2 13 -3 10 -5
-3 -14 1 -21 9 -7 8 -21 15 -32 15 -19 0 -61 43 -64 65 0 5 -2 15 -2 21 -1 6
-13 9 -26 7 -18 -4 -23 -10 -18 -21 5 -14 4 -15 -10 -2 -9 8 -12 17 -7 18 16
6 9 23 -8 21 -23 -3 -73 11 -70 20 1 3 -25 34 -59 68 -46 48 -63 60 -72 51 -9
-9 -15 -5 -24 20 -7 18 -20 35 -30 38 -10 3 -18 11 -18 18 0 7 -9 22 -20 34
-19 20 -36 92 -22 92 4 0 20 -14 36 -30 32 -33 57 -38 76 -15 8 10 21 13 33 9
11 -4 17 -2 14 3 -4 6 4 8 17 6 36 -7 101 31 184 110 136 127 183 177 217 229
32 49 51 75 66 93 9 11 41 68 71 126 50 99 53 107 36 118 -13 8 -18 8 -18 0 0
-7 -10 -20 -22 -30 -11 -11 -19 -19 -17 -19 3 0 -35 -43 -85 -95 -49 -52 -94
-95 -101 -95 -7 0 -15 -9 -18 -21 -3 -12 -10 -18 -16 -15 -5 4 -13 1 -18 -6
-4 -7 -25 -26 -45 -41 -28 -21 -42 -26 -55 -19 -17 10 -68 -14 -107 -50 -11
-10 -27 -18 -35 -18 -9 0 -25 -7 -35 -15 -11 -8 -28 -15 -39 -15 -10 0 -16 -4
-13 -9 3 -5 -3 -11 -14 -14 -11 -3 -23 -1 -26 4 -3 5 -14 9 -25 9 -10 0 -19 4
-19 8 0 4 41 45 90 91 50 46 90 89 90 97 0 7 9 18 20 24 11 6 18 15 15 20 -3
5 4 25 16 45 l21 36 -28 -13 c-16 -7 -43 -20 -61 -30 -58 -31 -95 -33 -126 -4
-39 36 -31 56 28 76 53 18 100 41 230 111 139 75 238 109 370 126 135 18 174
19 228 8 27 -5 55 -3 96 10 55 16 60 16 91 0 23 -12 55 -17 102 -16 41 1 68
-3 68 -10 0 -5 15 1 33 14 47 35 264 110 336 116 11 1 12 -53 7 -321z m927
147 c-3 -9 -8 -14 -10 -11 -3 3 -2 9 2 15 9 16 15 13 8 -4z m86 -195 c52 0 97
-36 87 -68 -9 -29 -46 -30 -46 -2 0 31 -80 57 -125 40 -11 -4 -31 -3 -44 1
-22 9 -91 71 -91 82 0 3 41 -8 90 -24 50 -16 108 -29 129 -29z m-2199 -190 c0
-5 -5 -10 -11 -10 -5 0 -7 5 -4 10 3 6 8 10 11 10 2 0 4 -4 4 -10z m1356 -165
c16 -15 14 -124 -6 -330 -6 -55 -12 -127 -14 -160 -7 -90 -18 -149 -30 -157
-8 -5 -8 -8 0 -8 12 0 -3 -139 -17 -155 -5 -5 -9 -18 -9 -30 0 -44 -84 -183
-118 -196 -50 -19 -40 43 29 181 20 38 34 84 36 110 1 25 6 56 9 69 6 21 4 23
-18 19 -25 -5 -25 -3 -16 24 7 20 7 32 -1 42 -15 18 -17 174 -3 188 6 6 8 16
6 22 -4 12 20 114 64 266 19 67 51 130 65 130 5 0 15 -7 23 -15z m795 -38
c-17 -17 -24 -1 -10 25 12 21 14 21 17 4 2 -10 -1 -23 -7 -29z m-1506 -557
c-3 -5 -10 -10 -16 -10 -5 0 -9 5 -9 10 0 6 7 10 16 10 8 0 12 -4 9 -10z
m-1358 -26 c-3 -3 -12 -4 -19 -1 -8 3 -5 6 6 6 11 1 17 -2 13 -5z m3690 -1426
c-3 -7 -5 -2 -5 12 0 14 2 19 5 13 2 -7 2 -19 0 -25z m76 -28 c-6 -24 -23 -27
-23 -4 0 10 -5 14 -16 10 -8 -3 -12 -2 -9 4 3 6 17 10 30 10 18 0 22 -4 18
-20z m-43 -20 c0 -5 -7 -10 -16 -10 -8 0 -12 5 -9 10 3 6 10 10 16 10 5 0 9
-4 9 -10z m50 -30 c0 -5 -4 -10 -10 -10 -5 0 -10 5 -10 10 0 6 5 10 10 10 6 0
10 -4 10 -10z m107 -26 c-3 -3 -12 -4 -19 -1 -8 3 -5 6 6 6 11 1 17 -2 13 -5z
m-3227 -24 c0 -5 -12 -10 -27 -9 -25 0 -26 1 -8 9 27 12 35 12 35 0z m140 0
c0 -5 -5 -10 -11 -10 -5 0 -7 5 -4 10 3 6 8 10 11 10 2 0 4 -4 4 -10z m230
-10 c0 -5 -4 -10 -10 -10 -5 0 -10 5 -10 10 0 6 5 10 10 10 6 0 10 -4 10 -10z
m325 -30 c3 -5 1 -10 -4 -10 -6 0 -11 5 -11 10 0 6 2 10 4 10 3 0 8 -4 11 -10z
m2475 -34 c0 -8 3 -23 6 -33 5 -16 4 -16 -10 1 -18 22 -21 46 -6 46 6 0 10 -6
10 -14z m-33 -52 c-3 -3 -12 -4 -19 -1 -8 3 -5 6 6 6 11 1 17 -2 13 -5z m-67
-134 c0 -5 -2 -10 -4 -10 -3 0 -8 5 -11 10 -3 6 -1 10 4 10 6 0 11 -4 11 -10z
m-1565 -240 c3 -5 1 -10 -4 -10 -6 0 -11 5 -11 10 0 6 2 10 4 10 3 0 8 -4 11
-10z m1745 -105 c0 -8 -6 -15 -14 -15 -17 0 -28 14 -19 24 12 12 33 6 33 -9z
m-1395 -315 c4 -6 -7 -10 -25 -10 -18 0 -29 4 -25 10 3 6 15 10 25 10 10 0 22
-4 25 -10z m1751 1 c-3 -5 8 -11 26 -15 43 -9 30 -17 -15 -9 -36 5 -54 33 -21
33 8 0 13 -4 10 -9z m-236 -15 c0 -8 -4 -18 -10 -21 -5 -3 -10 3 -10 14 0 12
5 21 10 21 6 0 10 -6 10 -14z m183 -3 c-7 -2 -19 -2 -25 0 -7 3 -2 5 12 5 14
0 19 -2 13 -5z m-233 -12 c0 -12 -20 -25 -27 -18 -7 7 6 27 18 27 5 0 9 -4 9
-9z m530 -21 c0 -6 -9 -5 -20 2 -11 7 -20 16 -20 21 0 4 9 3 20 -3 11 -6 20
-15 20 -20z m-570 5 c0 -9 -6 -12 -15 -9 -8 4 -12 10 -9 15 8 14 24 10 24 -6z
m325 -5 c-3 -5 -16 -10 -28 -9 -20 1 -20 2 3 9 14 4 26 8 28 9 2 1 0 -3 -3 -9z
m275 -20 c0 -5 -5 -10 -11 -10 -5 0 -7 5 -4 10 3 6 8 10 11 10 2 0 4 -4 4 -10z
m-720 -15 c0 -16 -35 -21 -45 -6 -4 8 9 15 38 20 4 0 7 -6 7 -14z m503 -2 c-7
-2 -19 -2 -25 0 -7 3 -2 5 12 5 14 0 19 -2 13 -5z m-1586 -35 c-3 -8 -6 -5 -6
6 -1 11 2 17 5 13 3 -3 4 -12 1 -19z m-37 2 c0 -5 -4 -10 -10 -10 -5 0 -10 5
-10 10 0 6 5 10 10 10 6 0 10 -4 10 -10z m1094 -19 c-7 -8 -35 9 -29 19 4 6
11 5 20 -3 7 -6 11 -14 9 -16z m-1051 -36 c-3 -9 -8 -14 -10 -11 -3 3 -2 9 2
15 9 16 15 13 8 -4z m47 1 c0 -3 -4 -8 -10 -11 -5 -3 -10 -1 -10 4 0 6 5 11
10 11 6 0 10 -2 10 -4z m2110 -16 c0 -5 -4 -10 -10 -10 -5 0 -10 5 -10 10 0 6
5 10 10 10 6 0 10 -4 10 -10z m280 -115 c0 -8 -7 -15 -15 -15 -16 0 -20 12 -8
23 11 12 23 8 23 -8z m-2293 -31 c-3 -3 -12 -4 -19 -1 -8 3 -5 6 6 6 11 1 17
-2 13 -5z m130 -230 c-3 -3 -12 -4 -19 -1 -8 3 -5 6 6 6 11 1 17 -2 13 -5z
m68 -92 c-3 -3 -11 0 -18 7 -9 10 -8 11 6 5 10 -3 15 -9 12 -12z m4 -35 c-2
-2 -11 -8 -20 -15 -12 -9 -16 -9 -16 1 0 7 9 14 20 14 11 1 18 1 16 0z m98
-83 c-3 -3 -12 -4 -19 -1 -8 3 -5 6 6 6 11 1 17 -2 13 -5z m-37 -16 c0 -11
-12 -10 -30 2 -12 7 -10 9 8 7 12 0 22 -5 22 -9z m131 -19 c-14 -6 -28 -6 -33
-1 -5 5 5 9 24 10 31 0 31 -1 9 -9z m332 -86 c-7 -2 -21 -2 -30 0 -10 3 -4 5
12 5 17 0 24 -2 18 -5z m112 -143 c3 -5 1 -10 -4 -10 -6 0 -11 5 -11 10 0 6 2
10 4 10 3 0 8 -4 11 -10z"/>
<path d="M3139 5428 c-12 -23 -12 -23 10 -4 23 21 26 26 11 26 -5 0 -15 -10
-21 -22z"/>
<path d="M2206 5234 c-4 -10 -1 -14 6 -12 15 5 23 28 10 28 -5 0 -13 -7 -16
-16z"/>
<path d="M2616 4855 c4 -8 8 -15 10 -15 2 0 4 7 4 15 0 8 -4 15 -10 15 -5 0
-7 -7 -4 -15z"/>
<path d="M3200 4110 c0 -5 5 -10 11 -10 5 0 7 5 4 10 -3 6 -8 10 -11 10 -2 0
-4 -4 -4 -10z"/>
<path d="M4568 6903 c6 -2 18 -2 25 0 6 3 1 5 -13 5 -14 0 -19 -2 -12 -5z"/>
<path d="M3723 6855 c0 -27 2 -38 4 -22 2 15 2 37 0 50 -2 12 -4 0 -4 -28z"/>
<path d="M4775 6530 c28 -12 47 -12 40 0 -3 6 -18 10 -33 9 -24 0 -25 -1 -7
-9z"/>
<path d="M4850 6536 c0 -2 9 -6 20 -9 11 -3 18 -1 14 4 -5 9 -34 13 -34 5z"/>
<path d="M4116 6451 c-4 -5 3 -7 14 -4 23 6 26 13 6 13 -8 0 -17 -4 -20 -9z"/>
<path d="M4169 6358 c-1 -14 -4 -31 -13 -75 -7 -29 -5 -30 19 -25 17 3 23 8
17 14 -5 5 -6 24 -2 41 7 35 3 57 -11 57 -5 0 -9 -6 -10 -12z"/>
<path d="M5730 6355 c-6 -8 -19 -11 -27 -8 -10 4 -14 2 -9 -5 3 -6 2 -13 -4
-17 -6 -4 -8 -11 -5 -16 4 -5 -10 -9 -30 -9 -20 0 -34 -4 -31 -9 8 -12 -39
-30 -55 -21 -8 6 -16 4 -21 -3 -5 -8 -12 -5 -23 10 -14 19 -25 23 -71 22 -47
-1 -57 -5 -64 -23 -6 -16 -3 -26 13 -40 20 -16 33 -18 121 -12 l98 6 -66 -52
c-36 -29 -64 -54 -62 -55 2 -2 33 3 68 12 64 17 261 125 226 125 -28 0 -28 15
-2 54 14 21 24 39 22 40 -14 13 -68 13 -78 1z m-219 -78 c-1 -12 -15 -9 -19 4
-3 6 1 10 8 8 6 -3 11 -8 11 -12z m249 -27 c0 -5 -4 -10 -10 -10 -5 0 -10 5
-10 10 0 6 5 10 10 10 6 0 10 -4 10 -10z"/>
<path d="M5523 6352 c-10 -6 -10 -12 2 -28 8 -10 15 -14 15 -9 1 6 3 18 5 28
4 18 -3 21 -22 9z"/>
<path d="M4201 6294 c0 -11 3 -14 6 -6 3 7 2 16 -1 19 -3 4 -6 -2 -5 -13z"/>
<path d="M5700 6142 c0 -5 -16 -16 -35 -25 -20 -9 -38 -24 -41 -32 -4 -8 -12
-15 -20 -15 -7 0 -17 -7 -22 -16 -5 -8 -28 -20 -51 -25 -37 -8 -46 -7 -69 12
l-27 21 -3 -27 c-3 -23 -7 -26 -28 -21 -14 4 -24 2 -24 -4 0 -5 5 -10 11 -10
5 0 7 -5 4 -11 -4 -6 -13 -8 -21 -5 -7 3 -20 -1 -28 -9 -19 -19 -42 -19 -50 1
-10 25 -28 4 -24 -27 3 -18 0 -29 -7 -29 -7 0 -24 -9 -39 -21 -28 -22 -26 -23
-40 25 -3 8 13 26 37 43 23 15 44 31 45 36 2 4 8 5 12 2 5 -3 11 -1 15 5 18
30 -77 -12 -104 -45 -31 -40 -44 -90 -31 -115 10 -19 18 -21 76 -17 58 4 84
-4 52 -16 -7 -2 -10 -7 -6 -11 3 -4 14 -3 25 2 10 6 36 18 58 27 48 20 287
140 334 168 26 16 35 17 41 7 10 -17 70 -15 82 2 18 28 -19 99 -65 125 -25 14
-57 17 -57 5z"/>
<path d="M6216 6091 c-4 -13 -22 -39 -40 -57 -32 -33 -71 -85 -71 -94 0 -12
-65 -117 -88 -142 -30 -34 -42 -35 -43 -5 0 12 -4 31 -9 41 -7 15 -5 18 7 13
11 -4 18 1 21 14 4 16 2 19 -11 14 -29 -13 -95 -23 -109 -18 -7 3 -15 -2 -19
-10 -3 -8 -24 -28 -47 -43 -23 -16 -66 -48 -95 -71 -30 -24 -57 -43 -61 -43
-4 0 -17 9 -29 20 -12 12 -22 17 -22 12 0 -5 -9 -13 -20 -18 -14 -7 -17 -13
-10 -24 8 -13 10 -12 10 3 0 20 16 23 26 5 4 -7 3 -10 -1 -5 -5 4 -14 -5 -21
-20 l-11 -28 -8 28 c-8 29 -25 35 -47 15 -17 -16 -80 -40 -72 -27 3 5 36 25
72 43 37 19 94 55 127 81 69 54 106 75 144 81 43 7 101 36 101 51 0 8 18 32
39 53 22 22 36 40 32 40 -4 0 -11 -3 -15 -7 -4 -4 -27 -6 -51 -4 -57 3 -85 -6
-85 -28 0 -14 -6 -17 -26 -13 -26 5 -65 -11 -95 -38 -79 -73 -109 -86 -109
-50 0 13 -7 20 -20 20 -11 0 -29 -9 -40 -20 -11 -11 -27 -20 -35 -20 -8 0 -15
-8 -15 -17 0 -15 -2 -16 -10 -3 -8 12 -10 12 -10 1 0 -8 -3 -11 -6 -8 -4 3
-26 -5 -49 -18 -46 -28 -71 -31 -78 -12 -3 6 -6 -4 -6 -24 -1 -40 -16 -59 -47
-59 -38 0 -50 26 -31 66 l17 34 -24 -15 c-47 -31 -57 -155 -13 -155 7 0 60 16
117 35 110 37 135 42 110 22 -58 -46 -107 -169 -80 -201 16 -21 45 -13 141 35
69 36 109 48 109 34 0 -3 -9 -23 -20 -45 -40 -78 -20 -97 70 -65 23 8 53 15
66 15 13 0 24 4 24 9 0 8 33 23 58 25 7 1 28 14 48 30 43 34 54 25 54 -44 0
-25 5 -74 10 -110 5 -36 14 -121 20 -190 12 -140 17 -170 29 -170 4 0 14 19
21 43 7 23 16 53 21 67 32 94 39 169 39 403 0 133 4 248 9 255 8 13 23 -29 36
-108 10 -56 16 -71 25 -65 5 3 13 -3 19 -12 9 -14 10 -12 5 12 -7 39 16 110
36 110 12 0 18 33 32 165 10 91 17 181 15 200 -2 32 -3 33 -11 11z m-334 -391
c-2 -22 -1 -23 16 -7 40 36 34 15 -8 -28 l-44 -45 -19 21 c-10 11 -25 18 -33
15 -24 -9 -15 6 23 41 41 38 69 40 65 3z m235 -72 c-3 -7 -5 -2 -5 12 0 14 2
19 5 13 2 -7 2 -19 0 -25z m-587 13 c0 -5 -6 -11 -13 -14 -8 -3 -14 1 -14 9 0
8 6 14 14 14 7 0 13 -4 13 -9z m-93 -63 c-6 -3 1 -8 14 -11 19 -3 18 -5 -8 -6
-33 -1 -38 5 -27 33 5 12 9 13 19 3 9 -8 9 -14 2 -19z m40 10 c-3 -8 -6 -5 -6
6 -1 11 2 17 5 13 3 -3 4 -12 1 -19z m207 -34 c-10 -8 -13 -12 -6 -9 10 5 13
0 10 -21 -4 -35 -48 -50 -48 -17 0 22 35 63 52 63 7 0 3 -7 -8 -16z"/>
<path d="M5360 6045 c-24 -14 -24 -14 -4 -15 12 0 24 7 28 15 6 18 7 18 -24 0z"/>
<path d="M5590 5890 c0 -5 5 -10 11 -10 5 0 7 5 4 10 -3 6 -8 10 -11 10 -2 0
-4 -4 -4 -10z"/>
<path d="M4458 5863 c-4 -13 0 -19 13 -19 14 0 16 3 6 16 -6 8 -12 16 -13 18
-1 1 -4 -5 -6 -15z"/>
<path d="M5266 5767 c3 -10 9 -15 12 -12 3 3 0 11 -7 18 -10 9 -11 8 -5 -6z"/>
<path d="M2624 5711 c11 -11 23 -21 28 -21 14 0 -1 19 -25 31 -22 12 -22 12
-3 -10z"/>
<path d="M2060 5681 c0 -12 27 -22 44 -15 8 3 17 1 21 -5 5 -10 -7 -15 -27
-12 -5 0 -8 -3 -8 -9 0 -5 6 -10 13 -10 8 0 7 -4 -3 -11 -12 -8 -11 -9 6 -4
16 4 23 0 27 -14 4 -15 15 -20 61 -23 54 -3 80 7 34 14 -14 2 -25 13 -29 28
-4 14 -7 19 -8 13 -1 -7 -6 -13 -12 -13 -6 0 -9 6 -6 14 10 25 -30 56 -73 56
-22 0 -40 -4 -40 -9z"/>
<path d="M5455 5020 c-3 -5 -12 -7 -19 -4 -18 7 -55 -33 -58 -60 -1 -12 -2
-29 -3 -38 0 -9 -4 -20 -8 -24 -4 -4 -5 -24 -2 -43 5 -34 5 -35 -6 -8 -14 34
-25 34 -34 0 -5 -22 -2 -32 19 -48 29 -23 33 -56 14 -102 -6 -15 -10 -34 -9
-42 4 -24 -10 -82 -18 -77 -5 3 -6 17 -4 31 6 31 -4 75 -17 75 -6 0 -10 -12
-10 -26 0 -20 -4 -25 -16 -20 -12 4 -14 1 -9 -14 3 -10 1 -29 -5 -40 -9 -16
-8 -25 1 -36 8 -10 9 -18 0 -27 -6 -8 -8 -17 -4 -20 3 -4 8 -40 10 -79 2 -40
8 -75 12 -78 5 -3 23 -32 40 -65 31 -59 41 -78 61 -112 6 -10 13 -26 16 -35 4
-10 10 -18 15 -18 5 0 8 -3 7 -7 -4 -11 96 -103 111 -103 7 0 10 -4 7 -9 -10
-16 42 -43 62 -32 19 10 69 61 59 61 -3 0 -1 14 4 30 6 17 16 30 21 30 7 0 6
5 -1 14 -9 11 -8 14 6 12 22 -1 59 64 41 75 -8 5 -8 18 0 49 12 50 0 208 -21
266 -28 78 -51 206 -27 149 8 -19 9 -19 9 3 1 19 -3 21 -24 16 -20 -5 -24 -3
-19 10 7 19 -21 23 -30 4 -3 -7 -3 -1 0 14 7 34 -6 60 -17 32 -6 -16 -8 -15
-14 11 -3 17 -11 40 -17 52 -15 30 -2 42 18 17 15 -18 15 -18 11 4 -3 12 -1
20 4 16 5 -3 9 -2 10 3 7 53 6 83 -1 83 -5 0 -12 -4 -15 -10 -13 -21 -20 -8
-17 30 3 25 0 40 -7 40 -6 0 -11 -17 -11 -40 0 -51 -18 -53 -22 -2 -3 32 -6
37 -26 35 -14 -2 -22 2 -20 10 2 13 -23 57 -34 57 -4 0 -9 -4 -13 -10z m275
-860 c0 -5 -2 -10 -4 -10 -3 0 -8 5 -11 10 -3 6 -1 10 4 10 6 0 11 -4 11 -10z
m-30 -24 c0 -3 -4 -8 -10 -11 -5 -3 -10 -1 -10 4 0 6 5 11 10 11 6 0 10 -2 10
-4z"/>
<path d="M5600 4950 c0 -5 5 -10 11 -10 5 0 7 5 4 10 -3 6 -8 10 -11 10 -2 0
-4 -4 -4 -10z"/>
<path d="M5320 4704 c0 -17 22 -14 28 4 2 7 -3 12 -12 12 -9 0 -16 -7 -16 -16z"/>
<path d="M5685 4050 c3 -5 8 -10 11 -10 2 0 4 5 4 10 0 6 -5 10 -11 10 -5 0
-7 -4 -4 -10z"/>
<path d="M5540 2849 c0 -5 5 -7 10 -4 6 3 10 8 10 11 0 2 -4 4 -10 4 -5 0 -10
-5 -10 -11z"/>
<path d="M2335 2650 c3 -5 8 -10 11 -10 2 0 4 5 4 10 0 6 -5 10 -11 10 -5 0
-7 -4 -4 -10z"/>
<path d="M3064 2645 c8 -8 18 -15 22 -15 3 0 1 7 -6 15 -7 8 -17 15 -22 15 -5
0 -3 -7 6 -15z"/>
<path d="M3330 2561 c0 -5 5 -13 10 -16 6 -3 10 -2 10 4 0 5 -4 13 -10 16 -5
3 -10 2 -10 -4z"/>
<path d="M3 2354 c4 -21 7 -48 7 -59 1 -19 1 -19 14 -2 9 11 17 14 21 8 8 -15
-6 -36 -25 -36 -13 0 -15 -134 -18 -1133 l-2 -1132 1943 0 1943 0 1 37 c1 43
-31 77 -59 62 -28 -15 -32 -10 -7 10 20 16 21 21 10 35 -18 22 4 82 24 66 22
-19 27 7 9 42 -10 18 -19 49 -21 68 -3 23 -15 44 -38 65 -20 19 -38 48 -44 73
-9 31 -17 42 -31 42 -11 0 -20 6 -20 14 0 8 -12 24 -27 36 l-28 21 28 -4 c15
-2 30 0 33 4 3 5 -4 9 -14 9 -11 0 -25 7 -32 15 -8 9 -21 13 -36 9 -21 -6 -24
-3 -24 25 0 24 -6 34 -24 41 -28 10 -50 45 -42 66 3 8 -1 14 -9 14 -22 0 -18
17 7 34 12 9 17 16 10 16 -7 0 -12 6 -11 13 2 13 -5 36 -26 82 -8 17 -16 39
-18 50 -2 11 -9 19 -15 17 -18 -3 -26 26 -13 42 8 10 8 16 -2 25 -8 6 -17 8
-20 4 -4 -3 -7 -1 -7 5 0 7 -7 12 -15 12 -8 0 -15 4 -15 10 0 5 -11 12 -25 16
-29 7 -32 19 -7 33 10 6 12 11 5 12 -43 4 -63 1 -78 -11 -14 -12 -18 -12 -25
1 -7 11 -12 11 -21 2 -8 -8 -18 -9 -31 -2 -10 5 -24 7 -30 3 -7 -5 -9 -2 -5 9
4 11 2 14 -9 10 -8 -3 -13 -12 -10 -19 7 -17 -6 -18 -22 -2 -7 7 -12 8 -12 2
0 -5 5 -15 12 -22 9 -9 7 -12 -10 -12 -16 0 -22 6 -22 22 0 12 -3 19 -6 16 -3
-3 -2 -22 1 -42 6 -32 9 -34 27 -25 13 7 18 7 14 1 -3 -6 0 -13 6 -16 7 -3 3
-3 -9 0 -15 3 -23 -1 -28 -15 -6 -19 -7 -19 -35 -3 -28 16 -32 16 -60 0 -36
-20 -38 -17 -7 13 12 12 16 19 9 14 -9 -5 -12 -2 -10 8 2 9 -1 16 -7 17 -5 1
-18 6 -29 12 -14 8 -17 7 -10 -4 6 -11 5 -11 -8 0 -12 9 -18 10 -23 2 -4 -6
-22 -9 -41 -7 -19 3 -34 1 -34 -4 0 -5 -5 -9 -11 -9 -6 0 -8 7 -5 16 4 11 1
14 -12 12 -9 -1 -23 1 -29 5 -7 5 -13 6 -13 3 0 -3 -12 1 -27 9 -15 8 -31 11
-36 8 -6 -4 -8 1 -4 11 5 13 3 17 -7 13 -10 -4 -13 -1 -10 8 4 9 -4 15 -23 17
-21 2 -29 9 -32 28 -1 14 -8 28 -15 32 -7 5 -3 8 9 8 12 0 16 3 9 8 -13 8 -12
48 1 59 4 5 5 2 0 -6 -6 -10 -4 -12 4 -7 9 6 9 11 -1 23 -11 14 -10 15 11 8
16 -5 21 -4 17 3 -4 6 5 19 19 28 14 9 25 23 25 30 0 8 6 14 14 14 7 0 19 7
26 15 7 8 26 15 42 15 16 0 31 6 34 15 4 10 15 12 36 8 33 -6 48 7 48 42 0 14
-7 20 -24 21 -34 2 -74 35 -78 63 -5 37 -27 37 -42 -1 -12 -28 -16 -30 -22
-15 -4 12 -14 17 -25 14 -12 -3 -19 0 -19 9 0 8 -6 14 -13 14 -13 0 -43 -40
-39 -53 1 -5 -2 -6 -8 -2 -6 4 -8 15 -5 24 3 10 3 26 -1 35 -5 13 -9 14 -20 5
-13 -10 -18 -6 -15 14 0 4 -9 7 -22 7 -12 0 -32 7 -44 15 -12 8 -28 12 -37 9
-10 -4 -16 -1 -16 8 0 12 -32 44 -98 99 -15 12 -92 2 -92 -12 0 -5 -18 -12
-40 -15 -22 -4 -40 -11 -40 -16 0 -5 -17 -9 -37 -8 -21 1 -44 2 -50 1 -15 -1
-18 -31 -4 -31 21 0 22 -42 1 -82 -17 -33 -19 -46 -11 -69 6 -18 6 -31 0 -35
-5 -3 -8 -12 -7 -20 2 -8 -15 -30 -37 -50 -22 -19 -34 -33 -27 -29 6 3 12 2
12 -3 0 -19 -46 -21 -88 -5 -35 13 -45 14 -52 3 -11 -17 -30 -4 -30 21 0 13
-11 25 -32 34 -33 13 -33 13 -42 -18 l-9 -32 -7 30 -6 30 -7 -35 c-5 -25 -10
-31 -16 -21 -7 11 -9 11 -14 0 -4 -10 -6 -10 -6 -1 -1 7 -14 12 -31 12 -17 0
-29 -3 -29 -7 1 -5 1 -15 0 -23 -1 -13 -3 -13 -10 0 -6 8 -7 18 -5 22 3 4 -2
8 -10 8 -15 0 -21 -17 -16 -49 1 -9 -4 -12 -17 -7 -17 6 -17 5 0 -8 23 -18 22
-30 -4 -23 -12 3 -18 3 -15 0 3 -4 1 -12 -6 -20 -8 -11 -7 -12 6 -7 22 8 21
-12 -1 -22 -10 -4 -21 -7 -25 -6 -4 1 -5 -4 -2 -11 3 -8 -4 -13 -16 -13 -11 0
-19 5 -16 11 2 7 -9 11 -29 11 -19 -1 -31 -5 -27 -11 3 -5 -7 1 -21 14 -21 19
-33 23 -63 18 -36 -6 -36 -6 -30 24 4 21 2 28 -6 23 -25 -16 -67 -12 -73 7 -4
11 -10 19 -14 19 -14 0 -39 -34 -56 -77 -10 -24 -22 -43 -27 -43 -5 0 -7 -12
-3 -29 5 -23 1 -31 -19 -45 -14 -9 -34 -16 -46 -16 -11 0 -20 -4 -20 -10 0
-13 -36 -13 -61 0 -10 6 -19 17 -19 25 0 8 -5 15 -10 15 -6 0 -14 10 -19 22
-4 12 -30 33 -57 47 -30 17 -49 33 -49 44 0 10 -6 21 -13 26 -8 5 -15 20 -15
34 -2 19 -11 31 -38 44 -26 12 -42 31 -58 66 -20 43 -21 52 -9 80 7 18 12 35
11 39 -2 4 7 10 20 14 12 4 28 16 36 26 11 16 24 19 85 17 l71 -2 -2 32 c-1
31 0 32 30 26 18 -4 40 -9 49 -11 13 -4 16 -1 12 11 -4 10 -13 13 -25 10 -22
-7 -25 7 -6 27 6 7 12 20 12 28 0 8 11 16 23 18 18 3 23 9 19 22 -3 11 0 21 7
24 8 3 7 7 -3 14 -7 5 -13 21 -13 36 0 16 -6 26 -15 26 -9 0 -12 6 -8 19 5 15
-1 19 -35 25 -22 3 -40 12 -41 19 -1 6 -4 1 -8 -13 -4 -14 -17 -27 -31 -30
-21 -5 -27 -1 -38 23 -10 23 -15 27 -26 18 -10 -9 -21 -9 -42 1 -45 20 -56 34
-39 48 8 7 15 21 15 31 0 11 5 19 10 19 6 0 10 11 10 25 0 14 4 25 10 25 5 0
12 11 16 24 3 15 20 30 45 41 29 14 39 24 39 42 0 12 5 23 10 23 6 0 10 7 10
15 0 14 -4 17 -32 19 -7 1 -19 9 -26 18 -17 23 -58 5 -71 -31 l-9 -26 -1 28
c-1 15 -6 27 -11 27 -6 0 -10 -6 -8 -13 3 -15 -50 -72 -59 -63 -3 3 -11 2 -17
-3 -6 -5 -42 2 -86 16 -41 14 -86 26 -100 26 -15 1 -24 7 -22 16 1 7 -9 28
-23 47 -22 29 -29 33 -46 23 -28 -14 -37 -3 -13 16 19 15 19 15 0 8 -13 -4
-17 -3 -12 5 4 7 3 12 -3 12 -5 0 -13 -4 -16 -10 -3 -5 -14 -10 -23 -10 -15 0
-15 2 -2 10 8 5 10 10 5 10 -6 0 -16 -5 -23 -12 -9 -9 -12 -7 -12 10 0 12 -4
22 -10 22 -5 0 -10 -6 -10 -12 0 -9 -4 -8 -11 2 -7 11 -12 12 -15 3 -3 -7 -11
-10 -18 -7 -8 3 -16 -2 -20 -11 -3 -9 -10 -14 -14 -11 -5 3 -15 -17 -22 -43
-13 -48 -14 -49 -59 -54 -39 -4 -49 -2 -70 19 -14 14 -30 23 -38 20 -7 -3 -13
-1 -13 5 0 14 -20 32 -53 47 -15 6 -26 16 -22 21 3 5 0 13 -6 17 -9 5 -10 -3
-6 -32z m2552 -744 c3 -5 1 -10 -4 -10 -6 0 -11 5 -11 10 0 6 2 10 4 10 3 0 8
-4 11 -10z m165 -86 c0 -8 -4 -12 -10 -9 -5 3 -10 10 -10 16 0 5 5 9 10 9 6 0
10 -7 10 -16z m-42 -429 c-3 -3 -9 2 -12 12 -6 14 -5 15 5 6 7 -7 10 -15 7
-18z m552 -5 c0 -5 -7 -7 -15 -4 -8 4 -15 8 -15 10 0 2 7 4 15 4 8 0 15 -4 15
-10z m-145 -90 c3 -5 2 -10 -4 -10 -5 0 -13 5 -16 10 -3 6 -2 10 4 10 5 0 13
-4 16 -10z m140 -21 c-4 -6 1 -17 11 -24 18 -13 18 -14 -1 -29 -12 -8 -21 -10
-24 -5 -2 6 -14 0 -27 -12 -13 -12 -24 -18 -24 -12 0 16 38 46 49 38 6 -3 11
1 11 9 0 8 -5 18 -11 22 -8 4 -7 9 2 15 18 12 21 11 14 -2z m59 -71 c-4 -6
-10 -5 -15 3 -14 22 -10 33 6 19 8 -7 12 -17 9 -22z m-152 -10 c-7 -7 -12 -8
-12 -2 0 14 12 26 19 19 2 -3 -1 -11 -7 -17z m111 -3 c-3 -9 -8 -14 -10 -11
-3 3 -2 9 2 15 9 16 15 13 8 -4z m355 -269 c2 -17 0 -26 -7 -22 -5 4 -8 13 -4
21 3 9 -1 15 -11 15 -9 0 -16 5 -16 11 0 25 35 2 38 -25z"/>
<path d="M704 2336 c-3 -8 -4 -25 -2 -38 3 -17 5 -13 9 15 5 38 2 47 -7 23z"/>
<path d="M720 2304 c0 -17 22 -14 28 4 2 7 -3 12 -12 12 -9 0 -16 -7 -16 -16z"/>
<path d="M3571 2304 c0 -11 3 -14 6 -6 3 7 2 16 -1 19 -3 4 -6 -2 -5 -13z"/>
<path d="M3606 2265 c7 -17 22 -19 43 -6 9 6 10 11 2 15 -6 4 -11 2 -11 -4 0
-8 -6 -8 -20 0 -16 9 -18 8 -14 -5z"/>
<path d="M3788 2160 c-10 -11 -13 -22 -8 -25 6 -4 10 -1 10 6 0 8 4 8 15 -1
10 -9 15 -9 15 -1 0 6 -5 11 -11 11 -6 0 -9 7 -5 15 7 20 4 19 -16 -5z"/>
<path d="M5805 1850 c27 -12 35 -12 35 0 0 6 -12 10 -27 9 -25 0 -26 -1 -8 -9z"/>
<path d="M6005 1840 c-3 -6 1 -7 9 -4 18 7 21 14 7 14 -6 0 -13 -4 -16 -10z"/>
<path d="M6205 1820 c-4 -6 3 -10 14 -10 25 0 27 6 6 13 -8 4 -17 2 -20 -3z"/>
<path d="M6170 1790 c-5 -3 0 -11 10 -18 11 -7 20 -8 20 -3 0 5 12 11 28 13
24 3 22 4 -11 9 -20 3 -42 2 -47 -1z"/>
<path d="M6236 1747 c-7 -27 -5 -28 15 -14 13 10 14 15 4 24 -10 9 -14 7 -19
-10z"/>
<path d="M6330 1766 c0 -2 7 -6 15 -10 8 -3 15 -1 15 4 0 6 -7 10 -15 10 -8 0
-15 -2 -15 -4z"/>
<path d="M6245 1709 c-4 -6 -4 -13 -1 -16 3 -4 6 -1 6 5 0 6 8 13 18 15 15 4
15 5 0 6 -9 0 -20 -4 -23 -10z"/>
<path d="M4184 1680 c17 -6 36 -5 45 0 11 7 3 9 -29 9 -42 -1 -43 -1 -16 -9z"/>
<path d="M6535 1650 c3 -5 11 -10 16 -10 6 0 7 5 4 10 -3 6 -11 10 -16 10 -6
0 -7 -4 -4 -10z"/>
<path d="M6748 1623 c6 -2 18 -2 25 0 6 3 1 5 -13 5 -14 0 -19 -2 -12 -5z"/>
<path d="M6872 1534 c9 -9 21 -13 28 -9 14 9 -5 25 -30 25 -12 0 -12 -3 2 -16z"/>
<path d="M4441 1526 c-11 -13 -10 -18 2 -31 9 -8 19 -15 23 -15 5 0 3 5 -4 12
-17 17 -15 31 4 24 10 -4 14 -1 12 6 -6 18 -24 20 -37 4z"/>
<path d="M6887 1443 c-8 -13 -5 -63 3 -63 11 0 20 54 10 63 -4 5 -10 5 -13 0z"/>
<path d="M4555 1370 c3 -5 8 -10 11 -10 2 0 4 5 4 10 0 6 -5 10 -11 10 -5 0
-7 -4 -4 -10z"/>
<path d="M4595 1230 c3 -5 11 -10 16 -10 6 0 7 5 4 10 -3 6 -11 10 -16 10 -6
0 -7 -4 -4 -10z"/>
<path d="M4582 1190 c0 -14 2 -19 5 -12 2 6 2 18 0 25 -3 6 -5 1 -5 -13z"/>
<path d="M2890 1121 c0 -6 4 -13 10 -16 6 -3 7 1 4 9 -7 18 -14 21 -14 7z"/>
<path d="M3100 1030 c0 -5 5 -10 10 -10 6 0 10 5 10 10 0 6 -4 10 -10 10 -5 0
-10 -4 -10 -10z"/>
<path d="M4658 1023 c7 -3 16 -2 19 1 4 3 -2 6 -13 5 -11 0 -14 -3 -6 -6z"/>
<path d="M4622 1012 c-6 -2 -12 -8 -12 -14 0 -7 5 -6 14 1 11 9 15 8 20 -4 3
-9 10 -13 16 -10 13 8 52 -4 46 -14 -3 -4 4 -7 14 -8 11 -1 17 3 14 11 -6 14
-93 45 -112 38z"/>
<path d="M4600 970 c0 -5 12 -10 26 -10 14 0 23 4 19 10 -3 6 -15 10 -26 10
-10 0 -19 -4 -19 -10z"/>
<path d="M4832 966 c7 -8 15 -12 17 -11 5 6 -10 25 -20 25 -5 0 -4 -6 3 -14z"/>
<path d="M5075 940 c11 -5 27 -9 35 -9 9 0 8 4 -5 9 -11 5 -27 9 -35 9 -9 0
-8 -4 5 -9z"/>
<path d="M5180 890 c8 -5 20 -10 25 -10 6 0 3 5 -5 10 -8 5 -19 10 -25 10 -5
0 -3 -5 5 -10z"/>
<path d="M5555 590 c-3 -5 -1 -10 4 -10 6 0 11 5 11 10 0 6 -2 10 -4 10 -3 0
-8 -4 -11 -10z"/>
</g>
</svg>
